<?xml version="1.0" encoding="utf-8"?>
<svg version="1.1" id="Layer_1" xmlns="http://www.w3.org/2000/svg" xmlns:xlink="http://www.w3.org/1999/xlink" x="0px" y="0px"
	 viewBox="0 0 32 32" style="enable-background:new 0 0 32 32;" xml:space="preserve">
<style type="text/css">
</style>
<g id="Layer_2_1_">
	<g id="Layer_1-2">
		<path fill="white" class="st0" d="M7.7,20.7c-1.2-0.9-2.9-2.1-4.7-3.4c2.1-0.9,4.2-1.6,6.3-2.5l2.7,2C10.7,18.3,9.3,19.6,7.7,20.7 M25.2,13.9
			c-0.5-1.3-0.9-2.6-1.3-3.9c-0.4-1.4-1-2.7-1.7-4c-0.3-0.5-1-1.7-1.8-1.7c-0.2,0-0.4,0.1-0.5,0.2c-0.6,0.5-1.1,1.2-1.4,1.9
			c-0.6,1.1-1.3,2.1-2.1,3c-0.6,0.8-1.3,1.5-2.2,1.9c-0.2,0.1-0.4,0.1-0.6,0.2c-0.4,0.1-0.8,0.3-1.1,0.6c-0.5,0.5-1,1-1.5,1.6
			l-0.4,0.5L13,16c1.9-2.2,3.9-4.4,5.4-8.4c-0.6,3.4-2.1,6.5-4.4,9.1c-1.4,1.7-3,3.2-4.7,4.6c0.4-0.1,0.8,0,1.2,0.1
			c1.2,0.5,1.9,2.3,2.4,3.6c0.4,0.9,0.8,1.8,1.2,2.8c1.1-0.3,2.1-0.8,2.9-1.6c0.9-0.8,1.7-1.7,2.4-2.6c1.4-1.7,3.3-4.1,5.5-3
			c0.4,0.2,0.7,0.4,1,0.7c0.4,0.4,0.8,0.7,1.2,1.1c0.6,0.6,1.1,1.1,1.8,1.5C27.5,20.6,26.4,17.3,25.2,13.9"/>
	</g>
</g>
</svg>
